G75*
%MOIN*%
%OFA0B0*%
%FSLAX24Y24*%
%IPPOS*%
%LPD*%
%AMOC8*
5,1,8,0,0,1.08239X$1,22.5*
%
%ADD10C,0.0000*%
%ADD11R,0.0900X0.2000*%
%ADD12OC8,0.0436*%
%ADD13R,0.1024X0.1575*%
%ADD14R,0.2000X0.1559*%
%ADD15OC8,0.0850*%
%ADD16OC8,0.0270*%
%ADD17C,0.0100*%
%ADD18C,0.0160*%
%ADD19OC8,0.0591*%
%ADD20C,0.0120*%
%ADD21C,0.0240*%
%ADD22C,0.0320*%
D10*
X000950Y004251D02*
X000950Y032151D01*
X000952Y032190D01*
X000958Y032229D01*
X000967Y032267D01*
X000980Y032304D01*
X000997Y032340D01*
X001017Y032373D01*
X001041Y032405D01*
X001067Y032434D01*
X001096Y032460D01*
X001128Y032484D01*
X001161Y032504D01*
X001197Y032521D01*
X001234Y032534D01*
X001272Y032543D01*
X001311Y032549D01*
X001350Y032551D01*
X007100Y032551D01*
X007139Y032549D01*
X007178Y032543D01*
X007216Y032534D01*
X007253Y032521D01*
X007289Y032504D01*
X007322Y032484D01*
X007354Y032460D01*
X007383Y032434D01*
X007409Y032405D01*
X007433Y032373D01*
X007453Y032340D01*
X007470Y032304D01*
X007483Y032267D01*
X007492Y032229D01*
X007498Y032190D01*
X007500Y032151D01*
X007400Y004351D01*
X007403Y004309D01*
X007402Y004267D01*
X007397Y004226D01*
X007388Y004185D01*
X007375Y004145D01*
X007359Y004107D01*
X007339Y004070D01*
X007316Y004035D01*
X007290Y004002D01*
X007261Y003972D01*
X007230Y003945D01*
X007195Y003920D01*
X007159Y003899D01*
X007121Y003882D01*
X007082Y003868D01*
X007041Y003857D01*
X007000Y003851D01*
X001350Y003851D01*
X001311Y003853D01*
X001272Y003859D01*
X001234Y003868D01*
X001197Y003881D01*
X001161Y003898D01*
X001128Y003918D01*
X001096Y003942D01*
X001067Y003968D01*
X001041Y003997D01*
X001017Y004029D01*
X000997Y004062D01*
X000980Y004098D01*
X000967Y004135D01*
X000958Y004173D01*
X000952Y004212D01*
X000950Y004251D01*
X002050Y003851D02*
X006450Y003851D01*
X003659Y030751D02*
X003661Y030799D01*
X003667Y030847D01*
X003677Y030894D01*
X003690Y030940D01*
X003708Y030985D01*
X003728Y031029D01*
X003753Y031071D01*
X003781Y031110D01*
X003811Y031147D01*
X003845Y031181D01*
X003882Y031213D01*
X003920Y031242D01*
X003961Y031267D01*
X004004Y031289D01*
X004049Y031307D01*
X004095Y031321D01*
X004142Y031332D01*
X004190Y031339D01*
X004238Y031342D01*
X004286Y031341D01*
X004334Y031336D01*
X004382Y031327D01*
X004428Y031315D01*
X004473Y031298D01*
X004517Y031278D01*
X004559Y031255D01*
X004599Y031228D01*
X004637Y031198D01*
X004672Y031165D01*
X004704Y031129D01*
X004734Y031091D01*
X004760Y031050D01*
X004782Y031007D01*
X004802Y030963D01*
X004817Y030918D01*
X004829Y030871D01*
X004837Y030823D01*
X004841Y030775D01*
X004841Y030727D01*
X004837Y030679D01*
X004829Y030631D01*
X004817Y030584D01*
X004802Y030539D01*
X004782Y030495D01*
X004760Y030452D01*
X004734Y030411D01*
X004704Y030373D01*
X004672Y030337D01*
X004637Y030304D01*
X004599Y030274D01*
X004559Y030247D01*
X004517Y030224D01*
X004473Y030204D01*
X004428Y030187D01*
X004382Y030175D01*
X004334Y030166D01*
X004286Y030161D01*
X004238Y030160D01*
X004190Y030163D01*
X004142Y030170D01*
X004095Y030181D01*
X004049Y030195D01*
X004004Y030213D01*
X003961Y030235D01*
X003920Y030260D01*
X003882Y030289D01*
X003845Y030321D01*
X003811Y030355D01*
X003781Y030392D01*
X003753Y030431D01*
X003728Y030473D01*
X003708Y030517D01*
X003690Y030562D01*
X003677Y030608D01*
X003667Y030655D01*
X003661Y030703D01*
X003659Y030751D01*
D11*
X002510Y004861D03*
X005990Y004861D03*
D12*
X002200Y024551D03*
X002200Y025051D03*
X002200Y025551D03*
X002200Y026051D03*
X002200Y026551D03*
X001700Y026551D03*
X001700Y026051D03*
X001700Y025551D03*
X001700Y025051D03*
X001700Y024551D03*
D13*
X004250Y027877D03*
X004250Y005712D03*
D14*
X004250Y010751D03*
X004250Y022838D03*
D15*
X002150Y020751D03*
X002150Y019751D03*
D16*
X002350Y018951D03*
X002350Y018551D03*
X002350Y018051D03*
X002350Y017551D03*
X002350Y017151D03*
X002350Y015851D03*
X002350Y015451D03*
X002050Y015651D03*
X001850Y016151D03*
X001500Y014751D03*
X001250Y014951D03*
X001250Y013351D03*
X001350Y011751D03*
X001450Y010151D03*
X001250Y008751D03*
X001750Y008751D03*
X002250Y006951D03*
X002350Y008751D03*
X002750Y010351D03*
X002750Y011151D03*
X002550Y012051D03*
X002050Y012951D03*
X001950Y011451D03*
X001700Y013301D03*
X003050Y013251D03*
X003350Y012351D03*
X003550Y013251D03*
X004250Y013151D03*
X004250Y012051D03*
X003950Y009551D03*
X003450Y008751D03*
X003750Y006951D03*
X003350Y005351D03*
X003350Y004851D03*
X003350Y004251D03*
X002950Y006951D03*
X005050Y006951D03*
X005150Y006351D03*
X005150Y005751D03*
X005150Y005351D03*
X005150Y004851D03*
X005150Y004251D03*
X005950Y006251D03*
X005950Y006951D03*
X005650Y008651D03*
X005650Y010251D03*
X005650Y011151D03*
X005650Y012051D03*
X005750Y012951D03*
X005050Y012951D03*
X005050Y015251D03*
X005150Y015751D03*
X005150Y016451D03*
X005350Y016951D03*
X005350Y017851D03*
X005650Y017551D03*
X005850Y016451D03*
X005950Y017851D03*
X006250Y018751D03*
X006550Y018451D03*
X006550Y018051D03*
X006750Y017451D03*
X006750Y016651D03*
X006750Y016151D03*
X006750Y015751D03*
X006950Y014751D03*
X006950Y013351D03*
X007050Y012851D03*
X006750Y012051D03*
X006450Y012951D03*
X007050Y011051D03*
X007050Y009851D03*
X006850Y008751D03*
X006950Y006851D03*
X006950Y006251D03*
X004850Y016051D03*
X004750Y017551D03*
X004950Y019651D03*
X004950Y020251D03*
X004950Y020651D03*
X004950Y021651D03*
X005350Y020451D03*
X005650Y020151D03*
X006050Y020651D03*
X006350Y020451D03*
X006750Y021051D03*
X006950Y022051D03*
X006850Y022351D03*
X007150Y022351D03*
X007150Y021751D03*
X007150Y021251D03*
X006450Y022351D03*
X006050Y022351D03*
X005650Y022351D03*
X006000Y025051D03*
X005600Y026301D03*
X005550Y025451D03*
X005550Y027251D03*
X005650Y028651D03*
X005050Y028651D03*
X005050Y027251D03*
X004650Y026751D03*
X004650Y026151D03*
X004650Y025451D03*
X003850Y025551D03*
X003850Y025051D03*
X003500Y026151D03*
X003550Y026851D03*
X003450Y028651D03*
X003150Y027751D03*
X003150Y027051D03*
X002750Y026051D03*
X002750Y025051D03*
X002850Y024051D03*
X002950Y023751D03*
X003150Y024051D03*
X003150Y024351D03*
X002600Y023751D03*
X001850Y022951D03*
X001750Y021551D03*
X002850Y019951D03*
X003450Y020351D03*
X003750Y019351D03*
X003950Y020151D03*
X004150Y017551D03*
X002450Y027251D03*
X002450Y027951D03*
X002250Y028651D03*
X001950Y027951D03*
X001750Y028651D03*
X001350Y027951D03*
X001350Y027251D03*
X001250Y028651D03*
X002850Y028651D03*
X006150Y027351D03*
X006250Y028651D03*
X006650Y027351D03*
X007050Y028651D03*
X007150Y027351D03*
X007150Y026251D03*
X007050Y025051D03*
X006550Y025051D03*
D17*
X007304Y025024D02*
X004500Y025024D01*
X004500Y025122D02*
X007305Y025122D01*
X007305Y025221D02*
X004500Y025221D01*
X004500Y025319D02*
X007305Y025319D01*
X007306Y025418D02*
X004500Y025418D01*
X004500Y025516D02*
X007306Y025516D01*
X007306Y025615D02*
X004500Y025615D01*
X004500Y025713D02*
X007307Y025713D01*
X007307Y025812D02*
X004500Y025812D01*
X004500Y025910D02*
X007308Y025910D01*
X007308Y026009D02*
X004500Y026009D01*
X004500Y026107D02*
X007308Y026107D01*
X007309Y026206D02*
X004500Y026206D01*
X004500Y026304D02*
X007309Y026304D01*
X007309Y026403D02*
X004500Y026403D01*
X004500Y026501D02*
X007310Y026501D01*
X007310Y026600D02*
X004500Y026600D01*
X004500Y026698D02*
X007310Y026698D01*
X007311Y026797D02*
X004500Y026797D01*
X004500Y026895D02*
X007311Y026895D01*
X007311Y026994D02*
X004906Y026994D01*
X004932Y027020D02*
X004932Y028735D01*
X004916Y028751D01*
X007318Y028751D01*
X007292Y021540D01*
X007276Y021556D01*
X007024Y021556D01*
X006845Y021377D01*
X006845Y021356D01*
X006624Y021356D01*
X006445Y021177D01*
X006445Y020924D01*
X006530Y020839D01*
X006530Y018902D01*
X006376Y019056D01*
X006124Y019056D01*
X005945Y018877D01*
X005945Y018624D01*
X006020Y018549D01*
X006020Y016946D01*
X005830Y016756D01*
X005724Y016756D01*
X005545Y016577D01*
X005545Y016324D01*
X005724Y016146D01*
X005976Y016146D01*
X006155Y016324D01*
X006155Y016430D01*
X006345Y016621D01*
X006480Y016755D01*
X006480Y017746D01*
X006676Y017746D01*
X006761Y017831D01*
X007141Y017831D01*
X007279Y017968D01*
X007230Y004411D01*
X007223Y004402D01*
X007230Y004342D01*
X007230Y004281D01*
X007232Y004279D01*
X007232Y004276D01*
X007201Y004170D01*
X007132Y004084D01*
X007035Y004031D01*
X006986Y004021D01*
X006590Y004021D01*
X006590Y004811D01*
X006040Y004811D01*
X006040Y004911D01*
X005940Y004911D01*
X005940Y006011D01*
X005520Y006011D01*
X005482Y006000D01*
X005448Y005981D01*
X005420Y005953D01*
X005400Y005919D01*
X005390Y005880D01*
X005390Y004911D01*
X005940Y004911D01*
X005940Y004811D01*
X005390Y004811D01*
X005390Y004021D01*
X003110Y004021D01*
X003110Y004811D01*
X002560Y004811D01*
X002560Y004911D01*
X002460Y004911D01*
X002460Y006011D01*
X002040Y006011D01*
X002002Y006000D01*
X001968Y005981D01*
X001940Y005953D01*
X001920Y005919D01*
X001910Y005880D01*
X001910Y004911D01*
X002460Y004911D01*
X002460Y004811D01*
X001910Y004811D01*
X001910Y004021D01*
X001350Y004021D01*
X001305Y004025D01*
X001222Y004059D01*
X001159Y004123D01*
X001124Y004206D01*
X001120Y004251D01*
X001120Y015427D01*
X001900Y014647D01*
X001900Y013501D01*
X001938Y013409D01*
X002008Y013339D01*
X003045Y012302D01*
X003045Y012224D01*
X003224Y012046D01*
X003476Y012046D01*
X003655Y012224D01*
X003655Y012477D01*
X003476Y012656D01*
X003399Y012656D01*
X002400Y013654D01*
X002400Y014800D01*
X002362Y014892D01*
X001500Y015754D01*
X001500Y021334D01*
X001563Y021271D01*
X001623Y021246D01*
X001624Y021246D01*
X001684Y021221D01*
X001779Y021221D01*
X001555Y020997D01*
X001555Y020504D01*
X001823Y020236D01*
X001575Y019989D01*
X001575Y019801D01*
X002100Y019801D01*
X002100Y019701D01*
X001575Y019701D01*
X001575Y019512D01*
X001912Y019176D01*
X002100Y019176D01*
X002100Y019701D01*
X002200Y019701D01*
X002200Y019801D01*
X002725Y019801D01*
X002725Y019989D01*
X002477Y020236D01*
X002745Y020504D01*
X002745Y020997D01*
X002404Y021338D01*
X002430Y021364D01*
X002432Y021370D01*
X003080Y022072D01*
X003080Y021988D01*
X003180Y021889D01*
X005320Y021889D01*
X005420Y021988D01*
X005420Y023688D01*
X005320Y023788D01*
X004500Y023788D01*
X004500Y026920D01*
X004832Y026920D01*
X004932Y027020D01*
X004932Y027092D02*
X007312Y027092D01*
X007312Y027191D02*
X004932Y027191D01*
X004932Y027289D02*
X007313Y027289D01*
X007313Y027388D02*
X004932Y027388D01*
X004932Y027486D02*
X007313Y027486D01*
X007314Y027585D02*
X004932Y027585D01*
X004932Y027683D02*
X007314Y027683D01*
X007314Y027782D02*
X004932Y027782D01*
X004932Y027880D02*
X007315Y027880D01*
X007315Y027979D02*
X004932Y027979D01*
X004932Y028077D02*
X007315Y028077D01*
X007316Y028176D02*
X004932Y028176D01*
X004932Y028274D02*
X007316Y028274D01*
X007316Y028373D02*
X004932Y028373D01*
X004932Y028471D02*
X007317Y028471D01*
X007317Y028570D02*
X004932Y028570D01*
X004932Y028668D02*
X007317Y028668D01*
X007304Y024925D02*
X004500Y024925D01*
X004500Y024827D02*
X007304Y024827D01*
X007303Y024728D02*
X004500Y024728D01*
X004500Y024630D02*
X007303Y024630D01*
X007303Y024531D02*
X004500Y024531D01*
X004500Y024433D02*
X007302Y024433D01*
X007302Y024334D02*
X004500Y024334D01*
X004500Y024236D02*
X007302Y024236D01*
X007301Y024137D02*
X004500Y024137D01*
X004500Y024039D02*
X007301Y024039D01*
X007300Y023940D02*
X004500Y023940D01*
X004500Y023842D02*
X007300Y023842D01*
X007300Y023743D02*
X005365Y023743D01*
X005420Y023645D02*
X007299Y023645D01*
X007299Y023546D02*
X005420Y023546D01*
X005420Y023448D02*
X007299Y023448D01*
X007298Y023349D02*
X005420Y023349D01*
X005420Y023251D02*
X007298Y023251D01*
X007298Y023152D02*
X005420Y023152D01*
X005420Y023054D02*
X007297Y023054D01*
X007297Y022955D02*
X005420Y022955D01*
X005420Y022857D02*
X007297Y022857D01*
X007296Y022758D02*
X005420Y022758D01*
X005420Y022660D02*
X007296Y022660D01*
X007296Y022561D02*
X005420Y022561D01*
X005420Y022463D02*
X007295Y022463D01*
X007295Y022364D02*
X005420Y022364D01*
X005420Y022266D02*
X007294Y022266D01*
X007294Y022167D02*
X005420Y022167D01*
X005420Y022069D02*
X007294Y022069D01*
X007293Y021970D02*
X005402Y021970D01*
X005476Y020756D02*
X005224Y020756D01*
X005045Y020577D01*
X005045Y020324D01*
X005120Y020249D01*
X005120Y019371D01*
X004055Y019371D01*
X004055Y019477D01*
X003876Y019656D01*
X003680Y019656D01*
X003680Y020149D01*
X003755Y020224D01*
X003755Y020477D01*
X003576Y020656D01*
X003324Y020656D01*
X003145Y020477D01*
X003145Y020224D01*
X003220Y020149D01*
X003220Y019055D01*
X003355Y018921D01*
X003920Y018355D01*
X003920Y017752D01*
X003845Y017677D01*
X003845Y017424D01*
X004024Y017246D01*
X004276Y017246D01*
X004455Y017424D01*
X004455Y017677D01*
X004380Y017752D01*
X004380Y018546D01*
X003995Y018931D01*
X004930Y018931D01*
X004930Y018242D01*
X004830Y018142D01*
X004830Y017660D01*
X004959Y017531D01*
X005130Y017360D01*
X005130Y017162D01*
X005045Y017077D01*
X005045Y016824D01*
X005224Y016646D01*
X005476Y016646D01*
X005655Y016824D01*
X005655Y017077D01*
X005570Y017162D01*
X005570Y017246D01*
X005776Y017246D01*
X005955Y017424D01*
X005955Y017677D01*
X005880Y017752D01*
X005880Y019949D01*
X005955Y020024D01*
X005955Y020277D01*
X005776Y020456D01*
X005655Y020456D01*
X005655Y020577D01*
X005476Y020756D01*
X005542Y020690D02*
X006530Y020690D01*
X006530Y020788D02*
X002745Y020788D01*
X002745Y020690D02*
X005158Y020690D01*
X005059Y020591D02*
X003641Y020591D01*
X003739Y020493D02*
X005045Y020493D01*
X005045Y020394D02*
X003755Y020394D01*
X003755Y020296D02*
X005074Y020296D01*
X005120Y020197D02*
X003728Y020197D01*
X003680Y020099D02*
X005120Y020099D01*
X005120Y020000D02*
X003680Y020000D01*
X003680Y019902D02*
X005120Y019902D01*
X005120Y019803D02*
X003680Y019803D01*
X003680Y019705D02*
X005120Y019705D01*
X005120Y019606D02*
X003926Y019606D01*
X004024Y019508D02*
X005120Y019508D01*
X005120Y019409D02*
X004055Y019409D01*
X003950Y019151D02*
X003750Y019351D01*
X003556Y018720D02*
X001500Y018720D01*
X001500Y018818D02*
X003457Y018818D01*
X003359Y018917D02*
X001500Y018917D01*
X001500Y019015D02*
X003260Y019015D01*
X003220Y019114D02*
X001500Y019114D01*
X001500Y019212D02*
X001875Y019212D01*
X001777Y019311D02*
X001500Y019311D01*
X001500Y019409D02*
X001678Y019409D01*
X001580Y019508D02*
X001500Y019508D01*
X001500Y019606D02*
X001575Y019606D01*
X001500Y019705D02*
X002100Y019705D01*
X002100Y019606D02*
X002200Y019606D01*
X002200Y019701D02*
X002200Y019176D01*
X002388Y019176D01*
X002725Y019512D01*
X002725Y019701D01*
X002200Y019701D01*
X002200Y019705D02*
X003220Y019705D01*
X003220Y019803D02*
X002725Y019803D01*
X002725Y019902D02*
X003220Y019902D01*
X003220Y020000D02*
X002714Y020000D01*
X002615Y020099D02*
X003220Y020099D01*
X003172Y020197D02*
X002517Y020197D01*
X002536Y020296D02*
X003145Y020296D01*
X003145Y020394D02*
X002635Y020394D01*
X002733Y020493D02*
X003161Y020493D01*
X003259Y020591D02*
X002745Y020591D01*
X002745Y020887D02*
X006483Y020887D01*
X006445Y020985D02*
X002745Y020985D01*
X002658Y021084D02*
X006445Y021084D01*
X006450Y021182D02*
X002560Y021182D01*
X002461Y021281D02*
X006549Y021281D01*
X006750Y021051D02*
X006750Y018451D01*
X006550Y018451D01*
X006550Y018051D02*
X007050Y018051D01*
X007150Y018151D01*
X007150Y021251D01*
X006946Y021478D02*
X002532Y021478D01*
X002622Y021576D02*
X007292Y021576D01*
X007292Y021675D02*
X002713Y021675D01*
X002804Y021773D02*
X007293Y021773D01*
X007293Y021872D02*
X002895Y021872D01*
X002986Y021970D02*
X003098Y021970D01*
X003080Y022069D02*
X003077Y022069D01*
X002906Y022857D02*
X002155Y022857D01*
X002155Y022824D02*
X002155Y023077D01*
X002100Y023132D01*
X002100Y023447D01*
X002642Y023989D01*
X002712Y024059D01*
X003454Y024801D01*
X003669Y024801D01*
X003724Y024746D01*
X003976Y024746D01*
X004000Y024769D01*
X004000Y023788D01*
X003180Y023788D01*
X003080Y023688D01*
X003080Y023046D01*
X002005Y021881D01*
X001684Y021881D01*
X001624Y021856D01*
X001624Y021856D01*
X001623Y021855D01*
X001563Y021830D01*
X001500Y021767D01*
X001500Y022247D01*
X001899Y022646D01*
X001976Y022646D01*
X002155Y022824D01*
X002089Y022758D02*
X002815Y022758D01*
X002724Y022660D02*
X001990Y022660D01*
X002100Y023152D02*
X003080Y023152D01*
X003080Y023054D02*
X002155Y023054D01*
X002155Y022955D02*
X002997Y022955D01*
X003080Y023251D02*
X002100Y023251D01*
X002100Y023349D02*
X003080Y023349D01*
X003080Y023448D02*
X002101Y023448D01*
X002199Y023546D02*
X003080Y023546D01*
X003080Y023645D02*
X002298Y023645D01*
X002396Y023743D02*
X003135Y023743D01*
X002987Y024334D02*
X004000Y024334D01*
X004000Y024236D02*
X002889Y024236D01*
X002790Y024137D02*
X004000Y024137D01*
X004000Y024039D02*
X002692Y024039D01*
X002593Y023940D02*
X004000Y023940D01*
X004000Y023842D02*
X002495Y023842D01*
X002588Y024642D02*
X002588Y024711D01*
X002485Y024815D01*
X002568Y024898D01*
X002568Y025042D01*
X002209Y025042D01*
X002209Y025060D01*
X002191Y025060D01*
X002191Y025419D01*
X002191Y025542D01*
X002209Y025542D01*
X002209Y025560D01*
X002568Y025560D01*
X002568Y025703D01*
X002485Y025786D01*
X002588Y025890D01*
X002588Y026211D01*
X002485Y026315D01*
X002568Y026398D01*
X002568Y026542D01*
X002209Y026542D01*
X002209Y026560D01*
X002191Y026560D01*
X002191Y026919D01*
X002048Y026919D01*
X001964Y026835D01*
X001861Y026939D01*
X001539Y026939D01*
X001312Y026711D01*
X001312Y026390D01*
X001401Y026301D01*
X001312Y026211D01*
X001312Y025890D01*
X001401Y025801D01*
X001312Y025711D01*
X001312Y025390D01*
X001401Y025301D01*
X001312Y025211D01*
X001312Y024890D01*
X001401Y024801D01*
X001312Y024711D01*
X001312Y024390D01*
X001539Y024163D01*
X001861Y024163D01*
X001950Y024252D01*
X002039Y024163D01*
X002108Y024163D01*
X001638Y023692D01*
X001600Y023600D01*
X001600Y023132D01*
X001545Y023077D01*
X001545Y022999D01*
X001120Y022574D01*
X001120Y028751D01*
X003584Y028751D01*
X003568Y028735D01*
X003568Y027020D01*
X003668Y026920D01*
X004000Y026920D01*
X004000Y025332D01*
X003976Y025356D01*
X003724Y025356D01*
X003669Y025301D01*
X003300Y025301D01*
X003208Y025263D01*
X002588Y024642D01*
X002571Y024728D02*
X002674Y024728D01*
X002568Y024925D02*
X002871Y024925D01*
X002773Y024827D02*
X002497Y024827D01*
X002568Y025024D02*
X002970Y025024D01*
X003068Y025122D02*
X002568Y025122D01*
X002568Y025060D02*
X002568Y025203D01*
X002471Y025301D01*
X002568Y025398D01*
X002568Y025542D01*
X002209Y025542D01*
X002209Y025060D01*
X002568Y025060D01*
X002551Y025221D02*
X003167Y025221D01*
X003381Y024728D02*
X004000Y024728D01*
X004000Y024630D02*
X003283Y024630D01*
X003184Y024531D02*
X004000Y024531D01*
X004000Y024433D02*
X003086Y024433D01*
X002633Y022561D02*
X001814Y022561D01*
X001716Y022463D02*
X002542Y022463D01*
X002451Y022364D02*
X001617Y022364D01*
X001519Y022266D02*
X002361Y022266D01*
X002270Y022167D02*
X001500Y022167D01*
X001500Y022069D02*
X002179Y022069D01*
X002088Y021970D02*
X001500Y021970D01*
X001500Y021872D02*
X001663Y021872D01*
X001624Y021246D02*
X001624Y021246D01*
X001553Y021281D02*
X001500Y021281D01*
X001500Y021182D02*
X001740Y021182D01*
X001642Y021084D02*
X001500Y021084D01*
X001500Y020985D02*
X001555Y020985D01*
X001555Y020887D02*
X001500Y020887D01*
X001500Y020788D02*
X001555Y020788D01*
X001555Y020690D02*
X001500Y020690D01*
X001500Y020591D02*
X001555Y020591D01*
X001567Y020493D02*
X001500Y020493D01*
X001500Y020394D02*
X001665Y020394D01*
X001764Y020296D02*
X001500Y020296D01*
X001500Y020197D02*
X001783Y020197D01*
X001685Y020099D02*
X001500Y020099D01*
X001500Y020000D02*
X001586Y020000D01*
X001575Y019902D02*
X001500Y019902D01*
X001500Y019803D02*
X001575Y019803D01*
X001500Y018621D02*
X003654Y018621D01*
X003753Y018523D02*
X001500Y018523D01*
X001500Y018424D02*
X003851Y018424D01*
X003920Y018326D02*
X002506Y018326D01*
X002476Y018356D02*
X002224Y018356D01*
X002169Y018301D01*
X001900Y018301D01*
X001808Y018263D01*
X001738Y018192D01*
X001538Y017992D01*
X001500Y017900D01*
X001500Y016201D01*
X001538Y016109D01*
X001545Y016102D01*
X001545Y016024D01*
X001724Y015846D01*
X001976Y015846D01*
X002155Y016024D01*
X002155Y016277D01*
X002000Y016432D01*
X002000Y017747D01*
X002054Y017801D01*
X002169Y017801D01*
X002224Y017746D01*
X002476Y017746D01*
X002655Y017924D01*
X002655Y018177D01*
X002476Y018356D01*
X002605Y018227D02*
X003920Y018227D01*
X003920Y018129D02*
X002655Y018129D01*
X002655Y018030D02*
X003920Y018030D01*
X003920Y017932D02*
X002655Y017932D01*
X002564Y017833D02*
X003920Y017833D01*
X003903Y017735D02*
X002000Y017735D01*
X002000Y017636D02*
X003845Y017636D01*
X003845Y017538D02*
X002000Y017538D01*
X002000Y017439D02*
X003845Y017439D01*
X003929Y017341D02*
X002000Y017341D01*
X002000Y017242D02*
X005130Y017242D01*
X005130Y017341D02*
X004371Y017341D01*
X004455Y017439D02*
X005050Y017439D01*
X005350Y017451D02*
X005050Y017751D01*
X005050Y018051D01*
X005150Y018151D01*
X005150Y019051D01*
X005050Y019151D01*
X003950Y019151D01*
X004009Y018917D02*
X004930Y018917D01*
X004930Y018818D02*
X004108Y018818D01*
X004206Y018720D02*
X004930Y018720D01*
X004930Y018621D02*
X004305Y018621D01*
X004380Y018523D02*
X004930Y018523D01*
X004930Y018424D02*
X004380Y018424D01*
X004380Y018326D02*
X004930Y018326D01*
X004915Y018227D02*
X004380Y018227D01*
X004380Y018129D02*
X004830Y018129D01*
X004830Y018030D02*
X004380Y018030D01*
X004380Y017932D02*
X004830Y017932D01*
X004830Y017833D02*
X004380Y017833D01*
X004397Y017735D02*
X004830Y017735D01*
X004853Y017636D02*
X004455Y017636D01*
X004455Y017538D02*
X004952Y017538D01*
X005112Y017144D02*
X002000Y017144D01*
X002000Y017045D02*
X005045Y017045D01*
X005045Y016947D02*
X002000Y016947D01*
X002000Y016848D02*
X005045Y016848D01*
X005120Y016750D02*
X002000Y016750D01*
X002000Y016651D02*
X005218Y016651D01*
X005350Y016951D02*
X005350Y017451D01*
X005570Y017242D02*
X006020Y017242D01*
X006020Y017144D02*
X005588Y017144D01*
X005655Y017045D02*
X006020Y017045D01*
X006020Y016947D02*
X005655Y016947D01*
X005655Y016848D02*
X005922Y016848D01*
X005871Y017341D02*
X006020Y017341D01*
X006020Y017439D02*
X005955Y017439D01*
X005955Y017538D02*
X006020Y017538D01*
X006020Y017636D02*
X005955Y017636D01*
X005897Y017735D02*
X006020Y017735D01*
X006020Y017833D02*
X005880Y017833D01*
X005880Y017932D02*
X006020Y017932D01*
X006020Y018030D02*
X005880Y018030D01*
X005880Y018129D02*
X006020Y018129D01*
X006020Y018227D02*
X005880Y018227D01*
X005880Y018326D02*
X006020Y018326D01*
X006020Y018424D02*
X005880Y018424D01*
X005880Y018523D02*
X006020Y018523D01*
X005948Y018621D02*
X005880Y018621D01*
X005880Y018720D02*
X005945Y018720D01*
X005945Y018818D02*
X005880Y018818D01*
X005880Y018917D02*
X005985Y018917D01*
X006083Y019015D02*
X005880Y019015D01*
X005880Y019114D02*
X006530Y019114D01*
X006530Y019212D02*
X005880Y019212D01*
X005880Y019311D02*
X006530Y019311D01*
X006530Y019409D02*
X005880Y019409D01*
X005880Y019508D02*
X006530Y019508D01*
X006530Y019606D02*
X005880Y019606D01*
X005880Y019705D02*
X006530Y019705D01*
X006530Y019803D02*
X005880Y019803D01*
X005880Y019902D02*
X006530Y019902D01*
X006530Y020000D02*
X005931Y020000D01*
X005955Y020099D02*
X006530Y020099D01*
X006530Y020197D02*
X005955Y020197D01*
X005936Y020296D02*
X006530Y020296D01*
X006530Y020394D02*
X005838Y020394D01*
X005655Y020493D02*
X006530Y020493D01*
X006530Y020591D02*
X005641Y020591D01*
X006417Y019015D02*
X006530Y019015D01*
X006530Y018917D02*
X006515Y018917D01*
X006480Y017735D02*
X007278Y017735D01*
X007278Y017833D02*
X007144Y017833D01*
X007242Y017932D02*
X007279Y017932D01*
X007278Y017636D02*
X006480Y017636D01*
X006480Y017538D02*
X007277Y017538D01*
X007277Y017439D02*
X006480Y017439D01*
X006480Y017341D02*
X007277Y017341D01*
X007276Y017242D02*
X006480Y017242D01*
X006480Y017144D02*
X007276Y017144D01*
X007276Y017045D02*
X006480Y017045D01*
X006480Y016947D02*
X007275Y016947D01*
X007275Y016848D02*
X006480Y016848D01*
X006474Y016750D02*
X007275Y016750D01*
X007274Y016651D02*
X006376Y016651D01*
X006277Y016553D02*
X007274Y016553D01*
X007274Y016454D02*
X006179Y016454D01*
X006155Y016356D02*
X007273Y016356D01*
X007273Y016257D02*
X006088Y016257D01*
X005989Y016159D02*
X007272Y016159D01*
X007272Y016060D02*
X002155Y016060D01*
X002155Y016159D02*
X005711Y016159D01*
X005612Y016257D02*
X002155Y016257D01*
X002076Y016356D02*
X005545Y016356D01*
X005545Y016454D02*
X002000Y016454D01*
X002000Y016553D02*
X005545Y016553D01*
X005482Y016651D02*
X005619Y016651D01*
X005580Y016750D02*
X005718Y016750D01*
X006450Y013851D02*
X006950Y013351D01*
X007262Y013302D02*
X002752Y013302D01*
X002654Y013401D02*
X007263Y013401D01*
X007263Y013499D02*
X002555Y013499D01*
X002457Y013598D02*
X007263Y013598D01*
X007264Y013696D02*
X002400Y013696D01*
X002400Y013795D02*
X007264Y013795D01*
X007264Y013893D02*
X002400Y013893D01*
X002400Y013992D02*
X007265Y013992D01*
X007265Y014090D02*
X002400Y014090D01*
X002400Y014189D02*
X007265Y014189D01*
X007266Y014287D02*
X002400Y014287D01*
X002400Y014386D02*
X007266Y014386D01*
X007266Y014484D02*
X002400Y014484D01*
X002400Y014583D02*
X007267Y014583D01*
X007267Y014681D02*
X002400Y014681D01*
X002400Y014780D02*
X007268Y014780D01*
X007268Y014878D02*
X002368Y014878D01*
X002278Y014977D02*
X007268Y014977D01*
X007269Y015075D02*
X002179Y015075D01*
X002081Y015174D02*
X007269Y015174D01*
X007269Y015272D02*
X001982Y015272D01*
X001884Y015371D02*
X007270Y015371D01*
X007270Y015469D02*
X001785Y015469D01*
X001687Y015568D02*
X007270Y015568D01*
X007271Y015666D02*
X001588Y015666D01*
X001500Y015765D02*
X007271Y015765D01*
X007271Y015863D02*
X001994Y015863D01*
X002092Y015962D02*
X007272Y015962D01*
X007262Y013204D02*
X002851Y013204D01*
X002949Y013105D02*
X007261Y013105D01*
X007261Y013007D02*
X003048Y013007D01*
X003146Y012908D02*
X007261Y012908D01*
X007260Y012810D02*
X003245Y012810D01*
X003343Y012711D02*
X007260Y012711D01*
X007260Y012613D02*
X003519Y012613D01*
X003618Y012514D02*
X007259Y012514D01*
X007259Y012416D02*
X003655Y012416D01*
X003655Y012317D02*
X007259Y012317D01*
X007258Y012219D02*
X003649Y012219D01*
X003551Y012120D02*
X007258Y012120D01*
X007258Y012022D02*
X001120Y012022D01*
X001120Y012120D02*
X003149Y012120D01*
X003051Y012219D02*
X001120Y012219D01*
X001120Y012317D02*
X003030Y012317D01*
X002931Y012416D02*
X001120Y012416D01*
X001120Y012514D02*
X002833Y012514D01*
X002734Y012613D02*
X001120Y012613D01*
X001120Y012711D02*
X002636Y012711D01*
X002537Y012810D02*
X001120Y012810D01*
X001120Y012908D02*
X002439Y012908D01*
X002340Y013007D02*
X001120Y013007D01*
X001120Y013105D02*
X002242Y013105D01*
X002143Y013204D02*
X001120Y013204D01*
X001120Y013302D02*
X002045Y013302D01*
X001946Y013401D02*
X001120Y013401D01*
X001120Y013499D02*
X001901Y013499D01*
X001900Y013598D02*
X001120Y013598D01*
X001120Y013696D02*
X001900Y013696D01*
X001900Y013795D02*
X001120Y013795D01*
X001120Y013893D02*
X001900Y013893D01*
X001900Y013992D02*
X001120Y013992D01*
X001120Y014090D02*
X001900Y014090D01*
X001900Y014189D02*
X001120Y014189D01*
X001120Y014287D02*
X001900Y014287D01*
X001900Y014386D02*
X001120Y014386D01*
X001120Y014484D02*
X001900Y014484D01*
X001900Y014583D02*
X001120Y014583D01*
X001120Y014681D02*
X001866Y014681D01*
X001767Y014780D02*
X001120Y014780D01*
X001120Y014878D02*
X001669Y014878D01*
X001570Y014977D02*
X001120Y014977D01*
X001120Y015075D02*
X001472Y015075D01*
X001373Y015174D02*
X001120Y015174D01*
X001120Y015272D02*
X001275Y015272D01*
X001176Y015371D02*
X001120Y015371D01*
X001500Y015863D02*
X001706Y015863D01*
X001608Y015962D02*
X001500Y015962D01*
X001500Y016060D02*
X001545Y016060D01*
X001517Y016159D02*
X001500Y016159D01*
X001500Y016257D02*
X001500Y016257D01*
X001500Y016356D02*
X001500Y016356D01*
X001500Y016454D02*
X001500Y016454D01*
X001500Y016553D02*
X001500Y016553D01*
X001500Y016651D02*
X001500Y016651D01*
X001500Y016750D02*
X001500Y016750D01*
X001500Y016848D02*
X001500Y016848D01*
X001500Y016947D02*
X001500Y016947D01*
X001500Y017045D02*
X001500Y017045D01*
X001500Y017144D02*
X001500Y017144D01*
X001500Y017242D02*
X001500Y017242D01*
X001500Y017341D02*
X001500Y017341D01*
X001500Y017439D02*
X001500Y017439D01*
X001500Y017538D02*
X001500Y017538D01*
X001500Y017636D02*
X001500Y017636D01*
X001500Y017735D02*
X001500Y017735D01*
X001500Y017833D02*
X001500Y017833D01*
X001500Y017932D02*
X001513Y017932D01*
X001500Y018030D02*
X001576Y018030D01*
X001500Y018129D02*
X001674Y018129D01*
X001773Y018227D02*
X001500Y018227D01*
X001500Y018326D02*
X002194Y018326D01*
X002200Y019212D02*
X002100Y019212D01*
X002100Y019311D02*
X002200Y019311D01*
X002200Y019409D02*
X002100Y019409D01*
X002100Y019508D02*
X002200Y019508D01*
X002425Y019212D02*
X003220Y019212D01*
X003220Y019311D02*
X002523Y019311D01*
X002622Y019409D02*
X003220Y019409D01*
X003220Y019508D02*
X002720Y019508D01*
X002725Y019606D02*
X003220Y019606D01*
X002441Y021379D02*
X006847Y021379D01*
X007257Y011923D02*
X001120Y011923D01*
X001120Y011825D02*
X007257Y011825D01*
X007257Y011726D02*
X001120Y011726D01*
X001120Y011628D02*
X003135Y011628D01*
X003130Y011623D02*
X003110Y011589D01*
X003100Y011551D01*
X003100Y010801D01*
X004200Y010801D01*
X004200Y010701D01*
X004300Y010701D01*
X004300Y009822D01*
X005270Y009822D01*
X005308Y009832D01*
X005342Y009852D01*
X005370Y009880D01*
X005390Y009914D01*
X005400Y009952D01*
X005400Y010701D01*
X004300Y010701D01*
X004300Y010801D01*
X005400Y010801D01*
X005400Y011551D01*
X005390Y011589D01*
X005370Y011623D01*
X005342Y011651D01*
X005308Y011671D01*
X005270Y011681D01*
X004300Y011681D01*
X004300Y010801D01*
X004200Y010801D01*
X004200Y011681D01*
X003230Y011681D01*
X003192Y011671D01*
X003158Y011651D01*
X003130Y011623D01*
X003100Y011529D02*
X001120Y011529D01*
X001120Y011431D02*
X003100Y011431D01*
X003100Y011332D02*
X001120Y011332D01*
X001120Y011234D02*
X003100Y011234D01*
X003100Y011135D02*
X001120Y011135D01*
X001120Y011037D02*
X003100Y011037D01*
X003100Y010938D02*
X001120Y010938D01*
X001120Y010840D02*
X003100Y010840D01*
X003100Y010701D02*
X003100Y009952D01*
X003110Y009914D01*
X003130Y009880D01*
X003158Y009852D01*
X003192Y009832D01*
X003230Y009822D01*
X004200Y009822D01*
X004200Y010701D01*
X003100Y010701D01*
X003100Y010643D02*
X001120Y010643D01*
X001120Y010741D02*
X004200Y010741D01*
X004200Y010643D02*
X004300Y010643D01*
X004300Y010741D02*
X007253Y010741D01*
X007253Y010643D02*
X005400Y010643D01*
X005400Y010544D02*
X007252Y010544D01*
X007252Y010446D02*
X005400Y010446D01*
X005400Y010347D02*
X007252Y010347D01*
X007251Y010249D02*
X005400Y010249D01*
X005400Y010150D02*
X007251Y010150D01*
X007251Y010052D02*
X005400Y010052D01*
X005400Y009953D02*
X007250Y009953D01*
X007250Y009855D02*
X005345Y009855D01*
X005400Y010840D02*
X007253Y010840D01*
X007254Y010938D02*
X005400Y010938D01*
X005400Y011037D02*
X007254Y011037D01*
X007254Y011135D02*
X005400Y011135D01*
X005400Y011234D02*
X007255Y011234D01*
X007255Y011332D02*
X005400Y011332D01*
X005400Y011431D02*
X007255Y011431D01*
X007256Y011529D02*
X005400Y011529D01*
X005365Y011628D02*
X007256Y011628D01*
X007249Y009756D02*
X001120Y009756D01*
X001120Y009658D02*
X007249Y009658D01*
X007249Y009559D02*
X001120Y009559D01*
X001120Y009461D02*
X007248Y009461D01*
X007248Y009362D02*
X001120Y009362D01*
X001120Y009264D02*
X007248Y009264D01*
X007247Y009165D02*
X001120Y009165D01*
X001120Y009067D02*
X007247Y009067D01*
X007247Y008968D02*
X001120Y008968D01*
X001120Y008870D02*
X007246Y008870D01*
X007246Y008771D02*
X001120Y008771D01*
X001120Y008673D02*
X007246Y008673D01*
X007245Y008574D02*
X001120Y008574D01*
X001120Y008476D02*
X007245Y008476D01*
X007244Y008377D02*
X001120Y008377D01*
X001120Y008279D02*
X007244Y008279D01*
X007244Y008180D02*
X001120Y008180D01*
X001120Y008082D02*
X007243Y008082D01*
X007243Y007983D02*
X001120Y007983D01*
X001120Y007885D02*
X007243Y007885D01*
X007242Y007786D02*
X001120Y007786D01*
X001120Y007688D02*
X007242Y007688D01*
X007242Y007589D02*
X001120Y007589D01*
X001120Y007491D02*
X007241Y007491D01*
X007241Y007392D02*
X001120Y007392D01*
X001120Y007294D02*
X007241Y007294D01*
X007240Y007195D02*
X001120Y007195D01*
X001120Y007097D02*
X007240Y007097D01*
X007240Y006998D02*
X001120Y006998D01*
X001120Y006900D02*
X007239Y006900D01*
X007239Y006801D02*
X001120Y006801D01*
X001120Y006703D02*
X007238Y006703D01*
X007238Y006604D02*
X004869Y006604D01*
X004882Y006592D02*
X004854Y006619D01*
X004820Y006639D01*
X004782Y006649D01*
X004300Y006649D01*
X004300Y005762D01*
X004912Y005762D01*
X004912Y006519D01*
X004902Y006557D01*
X004882Y006592D01*
X004912Y006506D02*
X007238Y006506D01*
X007237Y006407D02*
X004912Y006407D01*
X004912Y006309D02*
X007237Y006309D01*
X007237Y006210D02*
X004912Y006210D01*
X004912Y006112D02*
X007236Y006112D01*
X007236Y006013D02*
X004912Y006013D01*
X004912Y005915D02*
X005399Y005915D01*
X005390Y005816D02*
X004912Y005816D01*
X004912Y005662D02*
X004912Y004905D01*
X004902Y004867D01*
X004882Y004833D01*
X004854Y004805D01*
X004820Y004785D01*
X004782Y004775D01*
X004300Y004775D01*
X004300Y005662D01*
X004200Y005662D01*
X004200Y004775D01*
X003718Y004775D01*
X003680Y004785D01*
X003646Y004805D01*
X003618Y004833D01*
X003598Y004867D01*
X003588Y004905D01*
X003588Y005662D01*
X004200Y005662D01*
X004200Y005762D01*
X003588Y005762D01*
X003588Y006519D01*
X003598Y006557D01*
X003618Y006592D01*
X003646Y006619D01*
X003680Y006639D01*
X003718Y006649D01*
X004200Y006649D01*
X004200Y005762D01*
X004300Y005762D01*
X004300Y005662D01*
X004912Y005662D01*
X004912Y005619D02*
X005390Y005619D01*
X005390Y005521D02*
X004912Y005521D01*
X004912Y005422D02*
X005390Y005422D01*
X005390Y005324D02*
X004912Y005324D01*
X004912Y005225D02*
X005390Y005225D01*
X005390Y005127D02*
X004912Y005127D01*
X004912Y005028D02*
X005390Y005028D01*
X005390Y004930D02*
X004912Y004930D01*
X004880Y004831D02*
X005940Y004831D01*
X005940Y004930D02*
X006040Y004930D01*
X006040Y004911D02*
X006040Y006011D01*
X006460Y006011D01*
X006498Y006000D01*
X006532Y005981D01*
X006560Y005953D01*
X006580Y005919D01*
X006590Y005880D01*
X006590Y004911D01*
X006040Y004911D01*
X006040Y004831D02*
X007232Y004831D01*
X007231Y004733D02*
X006590Y004733D01*
X006590Y004634D02*
X007231Y004634D01*
X007231Y004536D02*
X006590Y004536D01*
X006590Y004437D02*
X007230Y004437D01*
X007230Y004339D02*
X006590Y004339D01*
X006590Y004240D02*
X007221Y004240D01*
X007178Y004142D02*
X006590Y004142D01*
X006590Y004043D02*
X007057Y004043D01*
X007232Y004930D02*
X006590Y004930D01*
X006590Y005028D02*
X007232Y005028D01*
X007233Y005127D02*
X006590Y005127D01*
X006590Y005225D02*
X007233Y005225D01*
X007234Y005324D02*
X006590Y005324D01*
X006590Y005422D02*
X007234Y005422D01*
X007234Y005521D02*
X006590Y005521D01*
X006590Y005619D02*
X007235Y005619D01*
X007235Y005718D02*
X006590Y005718D01*
X006590Y005816D02*
X007235Y005816D01*
X007236Y005915D02*
X006581Y005915D01*
X006250Y006251D02*
X005950Y006251D01*
X005150Y005751D01*
X005390Y005718D02*
X004300Y005718D01*
X004300Y005816D02*
X004200Y005816D01*
X004200Y005718D02*
X003110Y005718D01*
X003110Y005816D02*
X003588Y005816D01*
X003588Y005915D02*
X003101Y005915D01*
X003100Y005919D02*
X003080Y005953D01*
X003052Y005981D01*
X003018Y006000D01*
X002980Y006011D01*
X002560Y006011D01*
X002560Y004911D01*
X003110Y004911D01*
X003110Y005880D01*
X003100Y005919D01*
X003110Y005619D02*
X003588Y005619D01*
X003588Y005521D02*
X003110Y005521D01*
X003110Y005422D02*
X003588Y005422D01*
X003588Y005324D02*
X003110Y005324D01*
X003110Y005225D02*
X003588Y005225D01*
X003588Y005127D02*
X003110Y005127D01*
X003110Y005028D02*
X003588Y005028D01*
X003588Y004930D02*
X003110Y004930D01*
X003110Y004733D02*
X005390Y004733D01*
X005390Y004634D02*
X003110Y004634D01*
X003110Y004536D02*
X005390Y004536D01*
X005390Y004437D02*
X003110Y004437D01*
X003110Y004339D02*
X005390Y004339D01*
X005390Y004240D02*
X003110Y004240D01*
X003110Y004142D02*
X005390Y004142D01*
X005390Y004043D02*
X003110Y004043D01*
X003620Y004831D02*
X002560Y004831D01*
X002560Y004930D02*
X002460Y004930D01*
X002460Y005028D02*
X002560Y005028D01*
X002560Y005127D02*
X002460Y005127D01*
X002460Y005225D02*
X002560Y005225D01*
X002560Y005324D02*
X002460Y005324D01*
X002460Y005422D02*
X002560Y005422D01*
X002560Y005521D02*
X002460Y005521D01*
X002460Y005619D02*
X002560Y005619D01*
X002560Y005718D02*
X002460Y005718D01*
X002460Y005816D02*
X002560Y005816D01*
X002560Y005915D02*
X002460Y005915D01*
X002460Y004831D02*
X001120Y004831D01*
X001120Y004733D02*
X001910Y004733D01*
X001910Y004634D02*
X001120Y004634D01*
X001120Y004536D02*
X001910Y004536D01*
X001910Y004437D02*
X001120Y004437D01*
X001120Y004339D02*
X001910Y004339D01*
X001910Y004240D02*
X001121Y004240D01*
X001151Y004142D02*
X001910Y004142D01*
X001910Y004043D02*
X001261Y004043D01*
X001120Y004930D02*
X001910Y004930D01*
X001910Y005028D02*
X001120Y005028D01*
X001120Y005127D02*
X001910Y005127D01*
X001910Y005225D02*
X001120Y005225D01*
X001120Y005324D02*
X001910Y005324D01*
X001910Y005422D02*
X001120Y005422D01*
X001120Y005521D02*
X001910Y005521D01*
X001910Y005619D02*
X001120Y005619D01*
X001120Y005718D02*
X001910Y005718D01*
X001910Y005816D02*
X001120Y005816D01*
X001120Y005915D02*
X001919Y005915D01*
X001120Y006013D02*
X003588Y006013D01*
X003588Y006112D02*
X001120Y006112D01*
X001120Y006210D02*
X003588Y006210D01*
X003588Y006309D02*
X001120Y006309D01*
X001120Y006407D02*
X003588Y006407D01*
X003588Y006506D02*
X001120Y006506D01*
X001120Y006604D02*
X003631Y006604D01*
X004200Y006604D02*
X004300Y006604D01*
X004300Y006506D02*
X004200Y006506D01*
X004200Y006407D02*
X004300Y006407D01*
X004300Y006309D02*
X004200Y006309D01*
X004200Y006210D02*
X004300Y006210D01*
X004300Y006112D02*
X004200Y006112D01*
X004200Y006013D02*
X004300Y006013D01*
X004300Y005915D02*
X004200Y005915D01*
X004200Y005619D02*
X004300Y005619D01*
X004300Y005521D02*
X004200Y005521D01*
X004200Y005422D02*
X004300Y005422D01*
X004300Y005324D02*
X004200Y005324D01*
X004200Y005225D02*
X004300Y005225D01*
X004300Y005127D02*
X004200Y005127D01*
X004200Y005028D02*
X004300Y005028D01*
X004300Y004930D02*
X004200Y004930D01*
X004200Y004831D02*
X004300Y004831D01*
X004200Y009855D02*
X004300Y009855D01*
X004300Y009953D02*
X004200Y009953D01*
X004200Y010052D02*
X004300Y010052D01*
X004300Y010150D02*
X004200Y010150D01*
X004200Y010249D02*
X004300Y010249D01*
X004300Y010347D02*
X004200Y010347D01*
X004200Y010446D02*
X004300Y010446D01*
X004300Y010544D02*
X004200Y010544D01*
X004200Y010840D02*
X004300Y010840D01*
X004300Y010938D02*
X004200Y010938D01*
X004200Y011037D02*
X004300Y011037D01*
X004300Y011135D02*
X004200Y011135D01*
X004200Y011234D02*
X004300Y011234D01*
X004300Y011332D02*
X004200Y011332D01*
X004200Y011431D02*
X004300Y011431D01*
X004300Y011529D02*
X004200Y011529D01*
X004200Y011628D02*
X004300Y011628D01*
X003155Y009855D02*
X001120Y009855D01*
X001120Y009953D02*
X003100Y009953D01*
X003100Y010052D02*
X001120Y010052D01*
X001120Y010150D02*
X003100Y010150D01*
X003100Y010249D02*
X001120Y010249D01*
X001120Y010347D02*
X003100Y010347D01*
X003100Y010446D02*
X001120Y010446D01*
X001120Y010544D02*
X003100Y010544D01*
X001506Y021773D02*
X001500Y021773D01*
X001304Y022758D02*
X001120Y022758D01*
X001120Y022660D02*
X001205Y022660D01*
X001120Y022857D02*
X001402Y022857D01*
X001501Y022955D02*
X001120Y022955D01*
X001120Y023054D02*
X001545Y023054D01*
X001600Y023152D02*
X001120Y023152D01*
X001120Y023251D02*
X001600Y023251D01*
X001600Y023349D02*
X001120Y023349D01*
X001120Y023448D02*
X001600Y023448D01*
X001600Y023546D02*
X001120Y023546D01*
X001120Y023645D02*
X001618Y023645D01*
X001689Y023743D02*
X001120Y023743D01*
X001120Y023842D02*
X001787Y023842D01*
X001886Y023940D02*
X001120Y023940D01*
X001120Y024039D02*
X001984Y024039D01*
X002083Y024137D02*
X001120Y024137D01*
X001120Y024236D02*
X001466Y024236D01*
X001368Y024334D02*
X001120Y024334D01*
X001120Y024433D02*
X001312Y024433D01*
X001312Y024531D02*
X001120Y024531D01*
X001120Y024630D02*
X001312Y024630D01*
X001329Y024728D02*
X001120Y024728D01*
X001120Y024827D02*
X001375Y024827D01*
X001312Y024925D02*
X001120Y024925D01*
X001120Y025024D02*
X001312Y025024D01*
X001312Y025122D02*
X001120Y025122D01*
X001120Y025221D02*
X001321Y025221D01*
X001383Y025319D02*
X001120Y025319D01*
X001120Y025418D02*
X001312Y025418D01*
X001312Y025516D02*
X001120Y025516D01*
X001120Y025615D02*
X001312Y025615D01*
X001314Y025713D02*
X001120Y025713D01*
X001120Y025812D02*
X001390Y025812D01*
X001312Y025910D02*
X001120Y025910D01*
X001120Y026009D02*
X001312Y026009D01*
X001312Y026107D02*
X001120Y026107D01*
X001120Y026206D02*
X001312Y026206D01*
X001398Y026304D02*
X001120Y026304D01*
X001120Y026403D02*
X001312Y026403D01*
X001312Y026501D02*
X001120Y026501D01*
X001120Y026600D02*
X001312Y026600D01*
X001312Y026698D02*
X001120Y026698D01*
X001120Y026797D02*
X001397Y026797D01*
X001496Y026895D02*
X001120Y026895D01*
X001120Y026994D02*
X003594Y026994D01*
X003568Y027092D02*
X001120Y027092D01*
X001120Y027191D02*
X003568Y027191D01*
X003568Y027289D02*
X001120Y027289D01*
X001120Y027388D02*
X003568Y027388D01*
X003568Y027486D02*
X001120Y027486D01*
X001120Y027585D02*
X003568Y027585D01*
X003568Y027683D02*
X001120Y027683D01*
X001120Y027782D02*
X003568Y027782D01*
X003568Y027880D02*
X001120Y027880D01*
X001120Y027979D02*
X003568Y027979D01*
X003568Y028077D02*
X001120Y028077D01*
X001120Y028176D02*
X003568Y028176D01*
X003568Y028274D02*
X001120Y028274D01*
X001120Y028373D02*
X003568Y028373D01*
X003568Y028471D02*
X001120Y028471D01*
X001120Y028570D02*
X003568Y028570D01*
X003568Y028668D02*
X001120Y028668D01*
X001904Y026895D02*
X002024Y026895D01*
X002191Y026895D02*
X002209Y026895D01*
X002209Y026919D02*
X002209Y026560D01*
X002568Y026560D01*
X002568Y026703D01*
X002352Y026919D01*
X002209Y026919D01*
X002209Y026797D02*
X002191Y026797D01*
X002191Y026698D02*
X002209Y026698D01*
X002209Y026600D02*
X002191Y026600D01*
X002376Y026895D02*
X004000Y026895D01*
X004000Y026797D02*
X002475Y026797D01*
X002568Y026698D02*
X004000Y026698D01*
X004000Y026600D02*
X002568Y026600D01*
X002568Y026501D02*
X004000Y026501D01*
X004000Y026403D02*
X002568Y026403D01*
X002495Y026304D02*
X004000Y026304D01*
X004000Y026206D02*
X002588Y026206D01*
X002588Y026107D02*
X004000Y026107D01*
X004000Y026009D02*
X002588Y026009D01*
X002588Y025910D02*
X004000Y025910D01*
X004000Y025812D02*
X002510Y025812D01*
X002558Y025713D02*
X004000Y025713D01*
X004000Y025615D02*
X002568Y025615D01*
X002568Y025516D02*
X004000Y025516D01*
X004000Y025418D02*
X002568Y025418D01*
X002489Y025319D02*
X003687Y025319D01*
X002209Y025319D02*
X002191Y025319D01*
X002191Y025221D02*
X002209Y025221D01*
X002209Y025122D02*
X002191Y025122D01*
X002191Y025418D02*
X002209Y025418D01*
X002209Y025516D02*
X002191Y025516D01*
X001966Y024236D02*
X001934Y024236D01*
X005850Y006251D02*
X005950Y006251D01*
X005940Y005915D02*
X006040Y005915D01*
X006040Y005816D02*
X005940Y005816D01*
X005940Y005718D02*
X006040Y005718D01*
X006040Y005619D02*
X005940Y005619D01*
X005940Y005521D02*
X006040Y005521D01*
X006040Y005422D02*
X005940Y005422D01*
X005940Y005324D02*
X006040Y005324D01*
X006040Y005225D02*
X005940Y005225D01*
X005940Y005127D02*
X006040Y005127D01*
X006040Y005028D02*
X005940Y005028D01*
D18*
X006950Y013351D02*
X006350Y014751D01*
X005150Y016051D02*
X004850Y016351D01*
X004250Y016351D01*
X002150Y013551D02*
X003350Y012351D01*
X002150Y013551D02*
X002150Y014751D01*
X001250Y015651D01*
X001250Y022351D01*
X001850Y022951D01*
X001850Y023551D01*
X002500Y024201D01*
X002200Y024501D01*
X002200Y024551D01*
X002500Y024201D02*
X003350Y025051D01*
X003850Y025051D01*
X004250Y022838D02*
X004250Y027877D01*
X002350Y018051D02*
X001950Y018051D01*
X001750Y017851D01*
X001750Y016251D01*
X001850Y016151D01*
D19*
X001450Y005451D03*
X001450Y004401D03*
X006900Y004401D03*
X006900Y005551D03*
D20*
X005850Y016451D02*
X006250Y016851D01*
X006250Y018751D01*
X005650Y017551D02*
X005650Y020151D01*
X005350Y020451D02*
X005350Y017851D01*
X004150Y017551D02*
X004150Y018451D01*
X003450Y019151D01*
X003450Y020351D01*
D21*
X003337Y022838D02*
X004250Y022838D01*
D22*
X003337Y022838D02*
X002150Y021551D01*
X001750Y021551D01*
M02*
