G75*
%MOIN*%
%OFA0B0*%
%FSLAX24Y24*%
%IPPOS*%
%LPD*%
%AMOC8*
5,1,8,0,0,1.08239X$1,22.5*
%
%ADD10C,0.0000*%
%ADD11C,0.0040*%
%ADD12C,0.0060*%
%ADD13C,0.0050*%
%ADD14C,0.0020*%
%ADD15C,0.0039*%
%ADD16C,0.0472*%
%ADD17R,0.0236X0.0591*%
%ADD18C,0.0080*%
%ADD19C,0.0240*%
D10*
X000950Y004251D02*
X000950Y032151D01*
X000952Y032190D01*
X000958Y032229D01*
X000967Y032267D01*
X000980Y032304D01*
X000997Y032340D01*
X001017Y032373D01*
X001041Y032405D01*
X001067Y032434D01*
X001096Y032460D01*
X001128Y032484D01*
X001161Y032504D01*
X001197Y032521D01*
X001234Y032534D01*
X001272Y032543D01*
X001311Y032549D01*
X001350Y032551D01*
X007100Y032551D01*
X007139Y032549D01*
X007178Y032543D01*
X007216Y032534D01*
X007253Y032521D01*
X007289Y032504D01*
X007322Y032484D01*
X007354Y032460D01*
X007383Y032434D01*
X007409Y032405D01*
X007433Y032373D01*
X007453Y032340D01*
X007470Y032304D01*
X007483Y032267D01*
X007492Y032229D01*
X007498Y032190D01*
X007500Y032151D01*
X007400Y004351D01*
X007403Y004309D01*
X007402Y004267D01*
X007397Y004226D01*
X007388Y004185D01*
X007375Y004145D01*
X007359Y004107D01*
X007339Y004070D01*
X007316Y004035D01*
X007290Y004002D01*
X007261Y003972D01*
X007230Y003945D01*
X007195Y003920D01*
X007159Y003899D01*
X007121Y003882D01*
X007082Y003868D01*
X007041Y003857D01*
X007000Y003851D01*
X001350Y003851D01*
X001311Y003853D01*
X001272Y003859D01*
X001234Y003868D01*
X001197Y003881D01*
X001161Y003898D01*
X001128Y003918D01*
X001096Y003942D01*
X001067Y003968D01*
X001041Y003997D01*
X001017Y004029D01*
X000997Y004062D01*
X000980Y004098D01*
X000967Y004135D01*
X000958Y004173D01*
X000952Y004212D01*
X000950Y004251D01*
X002050Y003851D02*
X006450Y003851D01*
X003659Y030751D02*
X003661Y030799D01*
X003667Y030847D01*
X003677Y030894D01*
X003690Y030940D01*
X003708Y030985D01*
X003728Y031029D01*
X003753Y031071D01*
X003781Y031110D01*
X003811Y031147D01*
X003845Y031181D01*
X003882Y031213D01*
X003920Y031242D01*
X003961Y031267D01*
X004004Y031289D01*
X004049Y031307D01*
X004095Y031321D01*
X004142Y031332D01*
X004190Y031339D01*
X004238Y031342D01*
X004286Y031341D01*
X004334Y031336D01*
X004382Y031327D01*
X004428Y031315D01*
X004473Y031298D01*
X004517Y031278D01*
X004559Y031255D01*
X004599Y031228D01*
X004637Y031198D01*
X004672Y031165D01*
X004704Y031129D01*
X004734Y031091D01*
X004760Y031050D01*
X004782Y031007D01*
X004802Y030963D01*
X004817Y030918D01*
X004829Y030871D01*
X004837Y030823D01*
X004841Y030775D01*
X004841Y030727D01*
X004837Y030679D01*
X004829Y030631D01*
X004817Y030584D01*
X004802Y030539D01*
X004782Y030495D01*
X004760Y030452D01*
X004734Y030411D01*
X004704Y030373D01*
X004672Y030337D01*
X004637Y030304D01*
X004599Y030274D01*
X004559Y030247D01*
X004517Y030224D01*
X004473Y030204D01*
X004428Y030187D01*
X004382Y030175D01*
X004334Y030166D01*
X004286Y030161D01*
X004238Y030160D01*
X004190Y030163D01*
X004142Y030170D01*
X004095Y030181D01*
X004049Y030195D01*
X004004Y030213D01*
X003961Y030235D01*
X003920Y030260D01*
X003882Y030289D01*
X003845Y030321D01*
X003811Y030355D01*
X003781Y030392D01*
X003753Y030431D01*
X003728Y030473D01*
X003708Y030517D01*
X003690Y030562D01*
X003677Y030608D01*
X003667Y030655D01*
X003661Y030703D01*
X003659Y030751D01*
D11*
X003657Y022751D02*
X003470Y022751D01*
X003563Y022751D02*
X003563Y022471D01*
X003046Y022517D02*
X003046Y022704D01*
X002999Y022751D01*
X002859Y022751D01*
X002859Y022471D01*
X002999Y022471D01*
X003046Y022517D01*
X002751Y022471D02*
X002751Y022751D01*
X002565Y022751D02*
X002751Y022471D01*
X002565Y022471D02*
X002565Y022751D01*
X002457Y022704D02*
X002410Y022751D01*
X002317Y022751D01*
X002270Y022704D01*
X002270Y022517D01*
X002317Y022471D01*
X002410Y022471D01*
X002457Y022517D01*
X002457Y022611D01*
X002363Y022611D01*
X004270Y022564D02*
X004410Y022564D01*
X004457Y022611D01*
X004457Y022704D01*
X004410Y022751D01*
X004270Y022751D01*
X004270Y022471D01*
X004363Y022564D02*
X004457Y022471D01*
D12*
X003624Y019471D02*
X003626Y019497D01*
X003632Y019523D01*
X003641Y019547D01*
X003654Y019570D01*
X003670Y019591D01*
X003689Y019609D01*
X003710Y019625D01*
X003734Y019637D01*
X003758Y019645D01*
X003784Y019650D01*
X003811Y019651D01*
X003837Y019648D01*
X003862Y019641D01*
X003886Y019631D01*
X003909Y019617D01*
X003929Y019601D01*
X003946Y019581D01*
X003961Y019559D01*
X003972Y019535D01*
X003980Y019510D01*
X003984Y019484D01*
X003984Y019458D01*
X003980Y019432D01*
X003972Y019407D01*
X003961Y019383D01*
X003946Y019361D01*
X003929Y019341D01*
X003909Y019325D01*
X003886Y019311D01*
X003862Y019301D01*
X003837Y019294D01*
X003811Y019291D01*
X003784Y019292D01*
X003758Y019297D01*
X003734Y019305D01*
X003710Y019317D01*
X003689Y019333D01*
X003670Y019351D01*
X003654Y019372D01*
X003641Y019395D01*
X003632Y019419D01*
X003626Y019445D01*
X003624Y019471D01*
X003454Y019052D02*
X003454Y020849D01*
X005946Y020849D01*
X005946Y019052D01*
X003454Y019052D01*
X003964Y016119D02*
X003964Y015883D01*
X004436Y015883D02*
X004436Y016119D01*
X002600Y019301D02*
X002400Y019301D01*
X002600Y019301D02*
X002600Y019501D01*
X002600Y020001D02*
X002600Y020201D01*
X002400Y020201D01*
X002400Y020301D02*
X002600Y020301D01*
X002600Y020501D01*
X002600Y021001D02*
X002600Y021201D01*
X002400Y021201D01*
X001900Y021201D02*
X001700Y021201D01*
X001700Y021001D01*
X001520Y020776D02*
X001180Y020776D01*
X001180Y020889D02*
X001180Y020662D01*
X001237Y020226D02*
X001180Y020169D01*
X001180Y020055D01*
X001237Y019999D01*
X001350Y019999D01*
X001350Y020112D01*
X001237Y020226D02*
X001464Y020226D01*
X001520Y020169D01*
X001520Y020055D01*
X001464Y019999D01*
X001520Y019857D02*
X001180Y019630D01*
X001520Y019630D01*
X001520Y019489D02*
X001520Y019319D01*
X001464Y019262D01*
X001237Y019262D01*
X001180Y019319D01*
X001180Y019489D01*
X001520Y019489D01*
X001520Y019857D02*
X001180Y019857D01*
X001520Y020776D02*
X001407Y020889D01*
X001700Y020501D02*
X001700Y020301D01*
X001900Y020301D01*
X001900Y020201D02*
X001700Y020201D01*
X001700Y020001D01*
X001700Y019501D02*
X001700Y019301D01*
X001900Y019301D01*
D13*
X002325Y019069D02*
X002325Y018952D01*
X002383Y018894D01*
X002383Y018759D02*
X002325Y018701D01*
X002325Y018584D01*
X002383Y018526D01*
X002617Y018526D01*
X002675Y018584D01*
X002675Y018701D01*
X002617Y018759D01*
X002675Y018894D02*
X002441Y019127D01*
X002383Y019127D01*
X002325Y019069D01*
X002675Y019127D02*
X002675Y018894D01*
X002929Y020056D02*
X002929Y020172D01*
X002929Y020114D02*
X003279Y020114D01*
X003279Y020056D02*
X003279Y020172D01*
X003221Y020301D02*
X003279Y020360D01*
X003279Y020476D01*
X003221Y020535D01*
X003279Y020669D02*
X003279Y020903D01*
X003279Y020786D02*
X002929Y020786D01*
X003046Y020669D01*
X002987Y020535D02*
X002929Y020476D01*
X002929Y020360D01*
X002987Y020301D01*
X003221Y020301D01*
X003875Y017776D02*
X003875Y017426D01*
X003875Y017542D02*
X004050Y017542D01*
X004109Y017601D01*
X004109Y017718D01*
X004050Y017776D01*
X003875Y017776D01*
X003992Y017542D02*
X004109Y017426D01*
X004064Y017326D02*
X004122Y017268D01*
X004064Y017326D02*
X003947Y017326D01*
X003888Y017268D01*
X003888Y017034D01*
X003947Y016976D01*
X004064Y016976D01*
X004122Y017034D01*
X004302Y017426D02*
X004243Y017484D01*
X004302Y017426D02*
X004418Y017426D01*
X004477Y017484D01*
X004477Y017542D01*
X004418Y017601D01*
X004360Y017601D01*
X004418Y017601D02*
X004477Y017659D01*
X004477Y017718D01*
X004418Y017776D01*
X004302Y017776D01*
X004243Y017718D01*
X004315Y017326D02*
X004432Y017326D01*
X004490Y017268D01*
X004490Y017209D01*
X004432Y017151D01*
X004490Y017092D01*
X004490Y017034D01*
X004432Y016976D01*
X004315Y016976D01*
X004257Y017034D01*
X004373Y017151D02*
X004432Y017151D01*
X004257Y017268D02*
X004315Y017326D01*
X004950Y016074D02*
X005300Y016074D01*
X005300Y015957D02*
X005300Y016191D01*
X005300Y015823D02*
X005300Y015589D01*
X004950Y015589D01*
X005066Y015957D02*
X004950Y016074D01*
X005125Y018026D02*
X005125Y018376D01*
X005300Y018376D01*
X005359Y018318D01*
X005359Y018201D01*
X005300Y018142D01*
X005125Y018142D01*
X005242Y018142D02*
X005359Y018026D01*
X005493Y018084D02*
X005552Y018026D01*
X005668Y018026D01*
X005727Y018084D01*
X005727Y018201D01*
X005668Y018259D01*
X005610Y018259D01*
X005493Y018201D01*
X005493Y018376D01*
X005727Y018376D01*
X005683Y021889D02*
X005625Y021947D01*
X005625Y022064D01*
X005683Y022123D01*
X005625Y022257D02*
X005625Y022491D01*
X005683Y022491D01*
X005917Y022257D01*
X005975Y022257D01*
X005917Y022123D02*
X005975Y022064D01*
X005975Y021947D01*
X005917Y021889D01*
X005683Y021889D01*
X006225Y021947D02*
X006283Y021889D01*
X006517Y021889D01*
X006575Y021947D01*
X006575Y022064D01*
X006517Y022123D01*
X006517Y022257D02*
X006458Y022257D01*
X006400Y022316D01*
X006400Y022432D01*
X006458Y022491D01*
X006517Y022491D01*
X006575Y022432D01*
X006575Y022316D01*
X006517Y022257D01*
X006400Y022316D02*
X006341Y022257D01*
X006283Y022257D01*
X006225Y022316D01*
X006225Y022432D01*
X006283Y022491D01*
X006341Y022491D01*
X006400Y022432D01*
X006283Y022123D02*
X006225Y022064D01*
X006225Y021947D01*
X006625Y019891D02*
X006625Y019657D01*
X006800Y019657D01*
X006741Y019774D01*
X006741Y019832D01*
X006800Y019891D01*
X006917Y019891D01*
X006975Y019832D01*
X006975Y019716D01*
X006917Y019657D01*
X006917Y019523D02*
X006975Y019464D01*
X006975Y019347D01*
X006917Y019289D01*
X006683Y019289D01*
X006625Y019347D01*
X006625Y019464D01*
X006683Y019523D01*
X006883Y021889D02*
X006825Y021947D01*
X006825Y022064D01*
X006883Y022123D01*
X006883Y022257D02*
X006825Y022316D01*
X006825Y022432D01*
X006883Y022491D01*
X007117Y022491D01*
X007175Y022432D01*
X007175Y022316D01*
X007117Y022257D01*
X007117Y022123D02*
X007175Y022064D01*
X007175Y021947D01*
X007117Y021889D01*
X006883Y021889D01*
X006883Y022257D02*
X006941Y022257D01*
X007000Y022316D01*
X007000Y022491D01*
X005413Y024953D02*
X005232Y025133D01*
X005232Y024953D02*
X005413Y025133D01*
X005118Y025088D02*
X005073Y025133D01*
X004983Y025133D01*
X004938Y025088D01*
X004938Y024998D01*
X004983Y024953D01*
X005073Y024953D01*
X005118Y024998D01*
X005118Y025088D01*
X004831Y024953D02*
X004741Y024953D01*
X004786Y024953D02*
X004786Y025224D01*
X004741Y025224D01*
X004627Y025088D02*
X004582Y025133D01*
X004447Y025133D01*
X004447Y025224D02*
X004447Y024953D01*
X004582Y024953D01*
X004627Y024998D01*
X004627Y025088D01*
X004332Y025133D02*
X004332Y024953D01*
X004197Y024953D01*
X004152Y024998D01*
X004152Y025133D01*
X003950Y028851D02*
X003950Y032451D01*
X004450Y032451D02*
X004450Y028851D01*
X004950Y028851D02*
X004950Y032451D01*
X005450Y032451D02*
X005450Y028851D01*
X005950Y028851D02*
X005950Y032451D01*
X006450Y032451D02*
X006450Y028851D01*
X006950Y028851D02*
X006950Y032451D01*
X007450Y032451D02*
X001050Y032451D01*
X001050Y028851D01*
X007450Y028851D01*
X007450Y032451D01*
X007450Y032051D02*
X001050Y032051D01*
X001050Y031551D02*
X007450Y031551D01*
X007450Y031051D02*
X001050Y031051D01*
X001050Y030551D02*
X007450Y030551D01*
X007450Y030051D02*
X001050Y030051D01*
X001050Y029551D02*
X007450Y029551D01*
X007450Y029051D02*
X001050Y029051D01*
X001450Y028851D02*
X001450Y032451D01*
X001950Y032451D02*
X001950Y028851D01*
X002450Y028851D02*
X002450Y032451D01*
X002950Y032451D02*
X002950Y028851D01*
X003450Y028851D02*
X003450Y032451D01*
X002639Y026791D02*
X001261Y026791D01*
X001261Y026574D01*
X000946Y026574D01*
X000946Y024527D01*
X001261Y024527D01*
X001261Y024310D01*
X002639Y024310D01*
X002639Y024547D01*
X002954Y024547D01*
X002954Y025196D01*
X002777Y025196D01*
X002777Y025905D01*
X002954Y025905D01*
X002954Y026555D01*
X002639Y026555D01*
X002639Y026791D01*
X002954Y025905D02*
X002954Y025196D01*
X001400Y018727D02*
X001400Y018494D01*
X001225Y018669D01*
X001575Y018669D01*
X001575Y018359D02*
X001458Y018242D01*
X001458Y018301D02*
X001458Y018126D01*
X001575Y018126D02*
X001225Y018126D01*
X001225Y018301D01*
X001283Y018359D01*
X001400Y018359D01*
X001458Y018301D01*
X001400Y017327D02*
X001400Y017094D01*
X001225Y017269D01*
X001575Y017269D01*
X001517Y016959D02*
X001575Y016901D01*
X001575Y016784D01*
X001517Y016726D01*
X001283Y016726D01*
X001225Y016784D01*
X001225Y016901D01*
X001283Y016959D01*
X001044Y014051D02*
X001044Y007751D01*
X001725Y004727D02*
X001725Y004494D01*
X001725Y004611D02*
X001375Y004611D01*
X001491Y004494D01*
X001375Y004359D02*
X001725Y004126D01*
X001725Y004359D02*
X001375Y004126D01*
X003725Y006347D02*
X003783Y006289D01*
X004017Y006289D01*
X004075Y006347D01*
X004075Y006464D01*
X004017Y006523D01*
X004075Y006657D02*
X004075Y006891D01*
X004075Y006774D02*
X003725Y006774D01*
X003841Y006657D01*
X003783Y006523D02*
X003725Y006464D01*
X003725Y006347D01*
X003368Y014826D02*
X003252Y014826D01*
X003193Y014884D01*
X003193Y015001D01*
X003368Y015001D01*
X003427Y014942D01*
X003427Y014884D01*
X003368Y014826D01*
X003193Y015001D02*
X003310Y015118D01*
X003427Y015176D01*
X003144Y016057D02*
X002356Y016057D01*
X002356Y016844D02*
X003144Y016844D01*
X003000Y015176D02*
X002883Y015176D01*
X002825Y015118D01*
X002825Y014884D01*
X002883Y014826D01*
X003000Y014826D01*
X003059Y014884D01*
X003059Y015118D02*
X003000Y015176D01*
X002250Y016903D02*
X002252Y016913D01*
X002257Y016922D01*
X002266Y016928D01*
X002275Y016931D01*
X002286Y016930D01*
X002295Y016925D01*
X002302Y016918D01*
X002306Y016908D01*
X002306Y016898D01*
X002302Y016888D01*
X002295Y016881D01*
X002286Y016876D01*
X002275Y016875D01*
X002266Y016878D01*
X002257Y016884D01*
X002252Y016893D01*
X002250Y016903D01*
X007344Y014051D02*
X007344Y007751D01*
D14*
X005856Y019142D02*
X005856Y020759D01*
X003544Y020759D01*
X003544Y019142D01*
X005856Y019142D01*
D15*
X007240Y024262D02*
X007299Y024262D01*
X007299Y028081D01*
X007240Y028081D01*
X003421Y028081D02*
X003322Y028081D01*
X003322Y024262D01*
X003421Y024262D01*
D16*
X003795Y025129D03*
D17*
X006662Y030133D03*
D18*
X004862Y016681D02*
X004862Y015421D01*
X003838Y015421D02*
X003838Y016681D01*
X002734Y003811D02*
X005766Y003811D01*
X006081Y003811D02*
X006081Y003240D01*
X005037Y003240D01*
X005037Y002394D01*
X005333Y002099D01*
X005333Y000603D01*
X004998Y000603D01*
X004998Y000140D01*
X003502Y000140D01*
X003502Y000603D01*
X003167Y000603D01*
X003167Y002099D01*
X003463Y002394D01*
X003463Y003240D01*
X002419Y003240D01*
X002419Y003811D01*
D19*
X007435Y014333D02*
X007437Y014354D01*
X007443Y014374D01*
X007452Y014392D01*
X007464Y014409D01*
X007480Y014423D01*
X007498Y014434D01*
X007517Y014442D01*
X007538Y014446D01*
X007558Y014446D01*
X007579Y014442D01*
X007598Y014434D01*
X007616Y014423D01*
X007632Y014409D01*
X007644Y014392D01*
X007653Y014374D01*
X007659Y014354D01*
X007661Y014333D01*
X007659Y014312D01*
X007653Y014292D01*
X007644Y014274D01*
X007632Y014257D01*
X007616Y014243D01*
X007598Y014232D01*
X007579Y014224D01*
X007558Y014220D01*
X007538Y014220D01*
X007517Y014224D01*
X007498Y014232D01*
X007480Y014243D01*
X007464Y014257D01*
X007452Y014274D01*
X007443Y014292D01*
X007437Y014312D01*
X007435Y014333D01*
M02*
