%
M48
M72
T01C0.0150
T02C0.0236
T03C0.0394
T04C0.0400
T05C0.1181
%
T01
X1250Y8751
X1450Y10151
X1350Y11751
X1700Y13301
X2050Y12951
X1950Y11451
X2550Y12051
X2750Y11151
X2750Y10351
X2350Y8751
X2250Y6951
X1750Y8751
X1250Y13351
X1500Y14751
X1250Y14951
X1850Y16151
X2050Y15651
X2350Y15851
X2350Y15451
X2350Y17151
X2350Y17551
X2350Y18051
X2350Y18551
X2350Y18951
X2850Y19951
X3450Y20351
X3750Y19351
X3950Y20151
X4150Y17551
X4750Y17551
X4850Y16051
X5050Y15251
X5150Y15751
X5150Y16451
X5350Y16951
X5350Y17851
X5650Y17551
X5850Y16451
X5950Y17851
X6250Y18751
X6550Y18451
X6550Y18051
X6750Y17451
X6750Y16651
X6750Y16151
X6750Y15751
X6950Y14751
X6950Y13351
X7050Y12851
X6750Y12051
X6450Y12951
X7050Y11051
X7050Y9851
X6850Y8751
X6950Y6851
X6950Y6251
X2950Y6951
X3350Y5351
X3350Y4851
X3350Y4251
X3750Y6951
X3450Y8751
X3950Y9551
X4250Y12051
X4250Y13151
X3550Y13251
X3350Y12351
X3050Y13251
X4950Y19651
X4950Y20251
X4950Y20651
X4950Y21651
X5350Y20451
X5650Y20151
X6050Y20651
X6350Y20451
X6750Y21051
X6950Y22051
X6850Y22351
X7150Y22351
X7150Y21751
X7150Y21251
X6450Y22351
X6050Y22351
X5650Y22351
X6000Y25051
X5600Y26301
X5550Y25451
X5550Y27251
X5650Y28651
X5050Y28651
X5050Y27251
X4650Y26751
X4650Y26151
X4650Y25451
X3850Y25551
X3850Y25051
X3500Y26151
X3550Y26851
X3450Y28651
X3150Y27751
X3150Y27051
X2750Y26051
X2750Y25051
X2850Y24051
X2950Y23751
X3150Y24051
X3150Y24351
X2600Y23751
X1850Y22951
X1750Y21551
X1350Y27251
X1350Y27951
X1250Y28651
X1750Y28651
X1950Y27951
X2250Y28651
X2450Y27951
X2450Y27251
X2850Y28651
X6150Y27351
X6250Y28651
X6650Y27351
X7050Y28651
X7150Y27351
X7150Y26251
X7050Y25051
X6550Y25051
X5750Y12951
X5650Y12051
X5650Y11151
X5650Y10251
X5650Y8651
X5950Y6951
X5950Y6251
X5150Y6351
X5150Y5751
X5150Y5351
X5150Y4851
X5150Y4251
X5050Y6951
X5050Y12951
T02
X2200Y24551
X2200Y25051
X2200Y25551
X2200Y26051
X2200Y26551
X1700Y26551
X1700Y26051
X1700Y25551
X1700Y25051
X1700Y24551
T03
X6900Y5551
X6900Y4401
X1450Y4401
X1450Y5451
T04
X2150Y19751
X2150Y20751
T05
X4250Y30751
M30
