G75*
%MOIN*%
%OFA0B0*%
%FSLAX24Y24*%
%IPPOS*%
%LPD*%
%AMOC8*
5,1,8,0,0,1.08239X$1,22.5*
%
%ADD10C,0.0000*%
%ADD11C,0.1221*%
%ADD12R,0.0160X0.0430*%
%ADD13R,0.0355X0.0749*%
%ADD14R,0.0316X0.0749*%
%ADD15R,0.0827X0.0434*%
%ADD16R,0.0940X0.2040*%
%ADD17OC8,0.0476*%
%ADD18R,0.0460X0.0900*%
%ADD19R,0.0355X0.0670*%
%ADD20R,0.0355X0.0178*%
%ADD21R,0.0512X0.0355*%
%ADD22R,0.0434X0.0473*%
%ADD23R,0.0473X0.0434*%
%ADD24R,0.0552X0.0631*%
%ADD25C,0.0540*%
%ADD26R,0.0827X0.0512*%
%ADD27OC8,0.0890*%
%ADD28OC8,0.0631*%
D10*
X000950Y004251D02*
X000950Y032151D01*
X000952Y032190D01*
X000958Y032229D01*
X000967Y032267D01*
X000980Y032304D01*
X000997Y032340D01*
X001017Y032373D01*
X001041Y032405D01*
X001067Y032434D01*
X001096Y032460D01*
X001128Y032484D01*
X001161Y032504D01*
X001197Y032521D01*
X001234Y032534D01*
X001272Y032543D01*
X001311Y032549D01*
X001350Y032551D01*
X007100Y032551D01*
X007139Y032549D01*
X007178Y032543D01*
X007216Y032534D01*
X007253Y032521D01*
X007289Y032504D01*
X007322Y032484D01*
X007354Y032460D01*
X007383Y032434D01*
X007409Y032405D01*
X007433Y032373D01*
X007453Y032340D01*
X007470Y032304D01*
X007483Y032267D01*
X007492Y032229D01*
X007498Y032190D01*
X007500Y032151D01*
X007400Y004351D01*
X007403Y004309D01*
X007402Y004267D01*
X007397Y004226D01*
X007388Y004185D01*
X007375Y004145D01*
X007359Y004107D01*
X007339Y004070D01*
X007316Y004035D01*
X007290Y004002D01*
X007261Y003972D01*
X007230Y003945D01*
X007195Y003920D01*
X007159Y003899D01*
X007121Y003882D01*
X007082Y003868D01*
X007041Y003857D01*
X007000Y003851D01*
X001350Y003851D01*
X001311Y003853D01*
X001272Y003859D01*
X001234Y003868D01*
X001197Y003881D01*
X001161Y003898D01*
X001128Y003918D01*
X001096Y003942D01*
X001067Y003968D01*
X001041Y003997D01*
X001017Y004029D01*
X000997Y004062D01*
X000980Y004098D01*
X000967Y004135D01*
X000958Y004173D01*
X000952Y004212D01*
X000950Y004251D01*
X002050Y003851D02*
X006450Y003851D01*
X003659Y030751D02*
X003661Y030799D01*
X003667Y030847D01*
X003677Y030894D01*
X003690Y030940D01*
X003708Y030985D01*
X003728Y031029D01*
X003753Y031071D01*
X003781Y031110D01*
X003811Y031147D01*
X003845Y031181D01*
X003882Y031213D01*
X003920Y031242D01*
X003961Y031267D01*
X004004Y031289D01*
X004049Y031307D01*
X004095Y031321D01*
X004142Y031332D01*
X004190Y031339D01*
X004238Y031342D01*
X004286Y031341D01*
X004334Y031336D01*
X004382Y031327D01*
X004428Y031315D01*
X004473Y031298D01*
X004517Y031278D01*
X004559Y031255D01*
X004599Y031228D01*
X004637Y031198D01*
X004672Y031165D01*
X004704Y031129D01*
X004734Y031091D01*
X004760Y031050D01*
X004782Y031007D01*
X004802Y030963D01*
X004817Y030918D01*
X004829Y030871D01*
X004837Y030823D01*
X004841Y030775D01*
X004841Y030727D01*
X004837Y030679D01*
X004829Y030631D01*
X004817Y030584D01*
X004802Y030539D01*
X004782Y030495D01*
X004760Y030452D01*
X004734Y030411D01*
X004704Y030373D01*
X004672Y030337D01*
X004637Y030304D01*
X004599Y030274D01*
X004559Y030247D01*
X004517Y030224D01*
X004473Y030204D01*
X004428Y030187D01*
X004382Y030175D01*
X004334Y030166D01*
X004286Y030161D01*
X004238Y030160D01*
X004190Y030163D01*
X004142Y030170D01*
X004095Y030181D01*
X004049Y030195D01*
X004004Y030213D01*
X003961Y030235D01*
X003920Y030260D01*
X003882Y030289D01*
X003845Y030321D01*
X003811Y030355D01*
X003781Y030392D01*
X003753Y030431D01*
X003728Y030473D01*
X003708Y030517D01*
X003690Y030562D01*
X003677Y030608D01*
X003667Y030655D01*
X003661Y030703D01*
X003659Y030751D01*
D11*
X004250Y030751D03*
D12*
X004316Y021099D03*
X004060Y021099D03*
X003804Y021099D03*
X003548Y021099D03*
X003548Y018802D03*
X003804Y018802D03*
X004060Y018802D03*
X004316Y018802D03*
X004572Y018802D03*
X004828Y018802D03*
X005084Y018802D03*
X005340Y018802D03*
X005596Y018802D03*
X005852Y018802D03*
X005852Y021099D03*
X005596Y021099D03*
X005340Y021099D03*
X005084Y021099D03*
X004828Y021099D03*
X004572Y021099D03*
D13*
X004464Y024302D03*
X004031Y024302D03*
X004897Y024302D03*
X005330Y024302D03*
X005763Y024302D03*
X006196Y024302D03*
X006630Y024302D03*
X006630Y028042D03*
X006196Y028042D03*
X005763Y028042D03*
X005330Y028042D03*
X004897Y028042D03*
X004464Y028042D03*
X004031Y028042D03*
D14*
X003618Y028042D03*
X003618Y024302D03*
X007043Y024302D03*
X007043Y028042D03*
D15*
X006650Y029401D03*
X006650Y032196D03*
D16*
X005990Y004861D03*
X004250Y004861D03*
X002510Y004861D03*
D17*
X002200Y024551D03*
X002200Y025051D03*
X002200Y025551D03*
X002200Y026051D03*
X002200Y026551D03*
X001700Y026551D03*
X001700Y026051D03*
X001700Y025551D03*
X001700Y025051D03*
X001700Y024551D03*
D18*
X001438Y014051D03*
X002226Y014051D03*
X003013Y014051D03*
X003800Y014051D03*
X004588Y014051D03*
X005375Y014051D03*
X006163Y014051D03*
X006950Y014051D03*
X006950Y007751D03*
X006163Y007751D03*
X005375Y007751D03*
X004588Y007751D03*
X003800Y007751D03*
X003013Y007751D03*
X002226Y007751D03*
X001438Y007751D03*
D19*
X002750Y016451D03*
D20*
X002317Y016451D03*
X002317Y016707D03*
X002317Y016195D03*
X003183Y016195D03*
X003183Y016451D03*
X003183Y016707D03*
D21*
X004200Y016355D03*
X004200Y015646D03*
D22*
X004115Y018051D03*
X003535Y018051D03*
X002950Y018716D03*
X002950Y019385D03*
X002865Y018051D03*
X001850Y017285D03*
X001850Y016616D03*
X004450Y006985D03*
X004450Y006316D03*
X004785Y018051D03*
X005750Y022816D03*
X005750Y023485D03*
X006350Y023485D03*
X006350Y022816D03*
X006950Y022816D03*
X006950Y023485D03*
X006250Y019985D03*
X006250Y019316D03*
D23*
X001850Y018685D03*
X001850Y018016D03*
D24*
X002826Y017251D03*
X002826Y015601D03*
X003574Y015601D03*
X003574Y017251D03*
D25*
X003550Y023151D03*
X004350Y023151D03*
X002650Y023151D03*
D26*
X004350Y016681D03*
X004350Y015421D03*
D27*
X002150Y019751D03*
X002150Y020751D03*
D28*
X001450Y005451D03*
X001450Y004401D03*
X006900Y004401D03*
X006900Y005551D03*
M02*
